<?xml version="1.0" encoding="UTF-8"?>
<svg width="32px" height="96px" viewBox="0 0 32 96" version="1.1" xmlns="http://www.w3.org/2000/svg" xmlns:xlink="http://www.w3.org/1999/xlink">
    <!-- Generator: Sketch 50.2 (55047) - http://www.bohemiancoding.com/sketch -->
    <title>Group 5</title>
    <desc>Created with Sketch.</desc>
    <defs></defs>
    <g id="Welcome" stroke="none" stroke-width="1" fill="none" fill-rule="evenodd">
        <g id="Desktop-HD" transform="translate(-250.000000, -2275.000000)" fill="#DA4447">
            <g id="Group-5" transform="translate(250.000000, 2275.000000)">
                <g id="Group-3" transform="translate(0.000000, 32.000000)">
                    <path d="M12.888,16.0000028 L10,16.0000028 L10,18.6520028 L12.755,18.6520028 C13.169,18.6400028 13.934,18.5100028 13.934,17.3630028 C13.934,15.9860028 12.888,16.0000028 12.888,16.0000028" id="Fill-107"></path>
                    <path d="M13.59,13.032 C13.59,12 12.888,12 12.888,12 L12.516,12 L10,12 L10,14.214 L12.709,14.214 C13.177,14.214 13.59,14.064 13.59,13.032" id="Fill-108"></path>
                    <path d="M20.746,14 C19.213,14 19,15.53 19,15.53 L22.259,15.53 C22.259,15.53 22.279,14 20.746,14" id="Fill-109"></path>
                    <path d="M23.973,17.765 L18.831,17.765 C18.831,19.608 20.578,19.492 20.578,19.492 C22.227,19.492 22.169,18.425 22.169,18.425 L23.915,18.425 C23.915,21.257 20.519,21.063 20.519,21.063 C16.445,21.063 16.707,17.27 16.707,17.27 C16.707,17.27 16.703,13.458 20.519,13.458 C24.535,13.458 23.973,17.765 23.973,17.765 L23.973,17.765 Z M16.315,17.927 C16.315,20.955 13.163,20.856 13.163,20.856 L10.275,20.856 L10.19,20.856 L8,20.856 L8,10.933 L10.19,10.933 L10.275,10.933 L13.163,10.933 C14.732,10.933 15.971,11.8 15.971,13.575 C15.971,15.351 14.457,15.463 14.457,15.463 C16.453,15.463 16.315,17.927 16.315,17.927 L16.315,17.927 Z M18.385,11.518 L22.479,11.518 L22.479,12.74 L18.385,12.74 L18.385,11.518 Z M0,32 L32,32 L32,0 L0,0 L0,32 Z" id="Fill-110"></path>
                </g>
                <path d="M22.362,76.737 C22.368,76.878 22.372,77.019 22.372,77.162 C22.372,81.499 19.07,86.501 13.032,86.501 C11.178,86.501 9.453,85.958 8,85.027 C8.257,85.057 8.518,85.072 8.783,85.072 C10.321,85.072 11.736,84.548 12.86,83.667 C11.423,83.641 10.211,82.692 9.793,81.388 C9.994,81.426 10.199,81.446 10.411,81.446 C10.71,81.446 11,81.406 11.276,81.331 C9.774,81.03 8.643,79.703 8.643,78.113 L8.643,78.071 C9.085,78.317 9.592,78.465 10.13,78.482 C9.249,77.893 8.669,76.888 8.669,75.75 C8.669,75.148 8.831,74.584 9.114,74.099 C10.733,76.085 13.152,77.392 15.88,77.529 C15.824,77.289 15.795,77.038 15.795,76.781 C15.795,74.968 17.265,73.498 19.077,73.498 C20.022,73.498 20.875,73.897 21.473,74.535 C22.221,74.388 22.924,74.115 23.558,73.739 C23.313,74.505 22.792,75.148 22.115,75.555 C22.779,75.475 23.411,75.299 24,75.038 C23.56,75.696 23.003,76.274 22.362,76.737 L22.362,76.737 Z M0,96 L32,96 L32,64 L0,64 L0,96 Z" id="Fill-93"></path>
                <path d="M24,24 L20.7933836,24 L20.7933836,18.7802067 C20.7933836,17.5356261 20.7721029,15.9348761 19.126717,15.9348761 C17.4581157,15.9348761 17.2037145,17.2911369 17.2037145,18.6916674 L17.2037145,24 L14,24 L14,13.266624 L17.0740956,13.266624 L17.0740956,14.7345651 L17.1185916,14.7345651 C17.5461405,13.8904235 18.5927646,13 20.1530277,13 C23.4002708,13 24,15.2225373 24,18.1131437 L24,24 Z M10.0015605,12 C8.89362809,12 8,11.1034841 8,10 C8,8.89651586 8.89362809,8 10.0015605,8 C11.1042913,8 12,8.89651586 12,10 C12,11.1034841 11.1042913,12 10.0015605,12 L10.0015605,12 Z M11,24 L8,24 L8,13 L11,13 L11,24 Z M0,32 L32,32 L32,0 L0,0 L0,32 Z" id="Fill-118"></path>
            </g>
        </g>
    </g>
</svg>